<svg xmlns="http://www.w3.org/2000/svg" width="640" height="730" viewBox="0 0 640 730">
<rect width="640" height="630" fill="white"/>
<text x="24" y="28" font-family="sans-serif" font-size="20">T12 flat-forced tip obstruction, t=0</text>
<text x="24" y="51" font-family="sans-serif" font-size="13">Skeletons only. Quartic profiles and exact proof are in proof.md.</text>
<polygon points="305.000,124.641 545.000,124.641 545.000,90.000 325.000,90.000" fill="#14856a" fill-opacity="0.12" stroke="#14856a" stroke-width="2"/>
<polygon points="65.000,540.333 185.000,332.487 155.000,315.167 45.000,505.692" fill="#3479bc" fill-opacity="0.12" stroke="#3479bc" stroke-width="2"/>
<polygon points="105.000,540.333 225.000,332.487 195.000,315.167 85.000,505.692" fill="#8d5a9e" fill-opacity="0.12" stroke="#8d5a9e" stroke-width="2"/>
<polygon points="265.000,124.641 155.000,315.167 185.000,332.487 305.000,124.641" fill="#d8891f" fill-opacity="0.12" stroke="#d8891f" stroke-width="2" stroke-dasharray="5 4"/>
<polygon points="275.000,107.321 155.000,315.167 185.000,332.487 295.000,141.962" fill="#b94949" fill-opacity="0.12" stroke="#b94949" stroke-width="2" stroke-dasharray="5 4"/>
<text x="24" y="600" font-family="sans-serif" font-size="13" fill="#14856a">O: (0, 0, 0, 0)</text>
<text x="24" y="618" font-family="sans-serif" font-size="13" fill="#3479bc">C: (0, 1, -1, -24)</text>
<text x="24" y="636" font-family="sans-serif" font-size="13" fill="#8d5a9e">D: (0, 1, 1, -24)</text>
<text x="24" y="654" font-family="sans-serif" font-size="13" fill="#d8891f">F forced: (1, 4, -1, -1)</text>
<text x="24" y="672" font-family="sans-serif" font-size="13" fill="#b94949">Q excluded: (0, 4, -1, -1)</text>
<circle cx="305.000" cy="124.641" r="3" fill="black"/>
<text x="310.000" y="119.641" font-family="sans-serif" font-size="13">z=(0,-1), protected old tip</text>
</svg>
